<svg xmlns="http://www.w3.org/2000/svg" width="100%" height="100%" viewBox="0 0 1440 267" fill="none">
  <path fill-rule="evenodd" clip-rule="evenodd" d="M1440 267L1392 240.951C1344 214.902 1248 166.061 1152 146.524C1056 126.988 960 140.012 864 126.988C768 113.963 672 74.8902 576 81.4024C480 87.9146 384 140.012 288 179.085C192 214.902 96 240.951 48 253.976L-1.43051e-05 267V-2.27094e-05L48 -2.27094e-05C96 -2.27094e-05 192 -2.27094e-05 288 -2.27094e-05C384 -2.27094e-05 480 -2.27094e-05 576 -2.27094e-05C672 -2.27094e-05 768 -2.27094e-05 864 -2.27094e-05C960 -2.27094e-05 1056 -2.27094e-05 1152 -2.27094e-05C1248 -2.27094e-05 1344 -2.27094e-05 1392 -2.27094e-05H1440V267Z" fill="#176729"/>
</svg>