<svg width="100%" height="100%" viewBox="0 0 390 249" fill="none" xmlns="http://www.w3.org/2000/svg">
<path fill-rule="evenodd" clip-rule="evenodd" d="M390.556 248.328L377.556 224.146C364.556 199.964 338.556 154.623 312.556 136.487C286.556 118.35 260.556 130.441 234.556 118.35C208.556 106.259 182.556 69.9861 156.556 76.0316C130.556 82.0771 104.556 130.441 78.5562 166.714C52.5562 199.964 26.5562 224.146 13.5562 236.237L0.556176 248.328L0.556176 0.462997L13.5562 0.462997C26.5562 0.462997 52.5562 0.462997 78.5562 0.462997C104.556 0.462997 130.556 0.462997 156.556 0.462997C182.556 0.462997 208.556 0.462997 234.556 0.462997C260.556 0.462997 286.556 0.462997 312.556 0.462997C338.556 0.462997 364.556 0.462997 377.556 0.462997H390.556L390.556 248.328Z" fill="#176729"/>
</svg>
