<svg width="32" height="32" viewBox="0 0 32 32" fill="none" xmlns="http://www.w3.org/2000/svg">
<path d="M27.2 1.59998H4.79998C3.03998 1.59998 1.59998 3.03998 1.59998 4.79998V27.2C1.59998 28.9616 3.03998 30.4 4.79998 30.4H16V19.2H12.8V15.24H16V11.96C16 8.49757 17.9392 6.06558 22.0256 6.06558L24.9104 6.06878V10.2368H22.9952C21.4048 10.2368 20.8 11.4304 20.8 12.5376V15.2416H24.9088L24 19.2H20.8V30.4H27.2C28.96 30.4 30.4 28.9616 30.4 27.2V4.79998C30.4 3.03998 28.96 1.59998 27.2 1.59998Z" fill="white"/>
</svg>
