<svg width="56" height="56" viewBox="0 0 56 56" fill="none" xmlns="http://www.w3.org/2000/svg">
<path d="M25.55 36.05L33.6583 27.9417C34.125 27.475 34.6889 27.2417 35.35 27.2417C36.0111 27.2417 36.575 27.475 37.0417 27.9417C37.5083 28.4084 37.7417 28.9722 37.7417 29.6334C37.7417 30.2945 37.5083 30.8584 37.0417 31.325L27.1833 41.1834C26.7167 41.65 26.1722 41.8834 25.55 41.8834C24.9278 41.8834 24.3833 41.65 23.9167 41.1834L18.9583 36.225C18.4917 35.7584 18.2583 35.1945 18.2583 34.5334C18.2583 33.8722 18.4917 33.3084 18.9583 32.8417C19.425 32.375 19.9889 32.1417 20.65 32.1417C21.3111 32.1417 21.875 32.375 22.3417 32.8417L25.55 36.05ZM11.6667 51.3334C10.3833 51.3334 9.28511 50.8768 8.372 49.9637C7.45889 49.0506 7.00156 47.9516 7 46.6667V14C7 12.7167 7.45733 11.6185 8.372 10.7054C9.28667 9.79224 10.3849 9.33491 11.6667 9.33335H14V7.00002C14 6.33891 14.224 5.78513 14.672 5.33869C15.12 4.89224 15.6738 4.66824 16.3333 4.66669C16.9944 4.66669 17.549 4.89069 17.997 5.33869C18.445 5.78669 18.6682 6.34046 18.6667 7.00002V9.33335H37.3333V7.00002C37.3333 6.33891 37.5573 5.78513 38.0053 5.33869C38.4533 4.89224 39.0071 4.66824 39.6667 4.66669C40.3278 4.66669 40.8823 4.89069 41.3303 5.33869C41.7783 5.78669 42.0016 6.34046 42 7.00002V9.33335H44.3333C45.6167 9.33335 46.7157 9.79069 47.6303 10.7054C48.545 11.62 49.0016 12.7182 49 14V46.6667C49 47.95 48.5434 49.049 47.6303 49.9637C46.7172 50.8784 45.6182 51.3349 44.3333 51.3334H11.6667ZM11.6667 46.6667H44.3333V23.3334H11.6667V46.6667Z" fill="#176729"/>
</svg>
