<svg width="56" height="56" viewBox="0 0 56 56" fill="none" xmlns="http://www.w3.org/2000/svg">
<path d="M4.66675 46.6667V44.3333C4.66675 40.0015 6.38758 35.847 9.45067 32.7839C12.5138 29.7208 16.6682 28 21.0001 28" stroke="#176729" stroke-width="1.5" stroke-linecap="round" stroke-linejoin="round"/>
<path d="M36.8761 28.7326C37.2299 28.3443 37.6609 28.0341 38.1414 27.8219C38.6219 27.6096 39.1415 27.5 39.6668 27.5C40.1921 27.5 40.7116 27.6096 41.1922 27.8219C41.6727 28.0341 42.1036 28.3443 42.4574 28.7326C43.2158 29.5633 44.3008 30.0136 45.4254 29.96C45.9504 29.9354 46.4748 30.0206 46.9649 30.2103C47.455 30.4 47.9002 30.69 48.2718 31.0616C48.6434 31.4332 48.9334 31.8784 49.1231 32.3685C49.3128 32.8586 49.3981 33.383 49.3734 33.908C49.3198 35.0303 49.7701 36.1176 50.6008 36.876C52.2458 38.374 52.2458 40.9593 50.6008 42.4573C49.7701 43.2156 49.3198 44.3006 49.3734 45.4253C49.3981 45.9503 49.3128 46.4746 49.1231 46.9648C48.9334 47.4549 48.6434 47.9 48.2718 48.2717C47.9002 48.6433 47.455 48.9332 46.9649 49.1229C46.4748 49.3126 45.9504 49.3979 45.4254 49.3733C44.8709 49.3471 44.3174 49.4435 43.8044 49.6556C43.2914 49.8678 42.8315 50.1904 42.4574 50.6006C42.1036 50.9889 41.6727 51.2991 41.1922 51.5114C40.7116 51.7236 40.1921 51.8333 39.6668 51.8333C39.1415 51.8333 38.6219 51.7236 38.1414 51.5114C37.6609 51.2991 37.2299 50.9889 36.8761 50.6006C36.5021 50.1904 36.0421 49.8678 35.5291 49.6556C35.0161 49.4435 34.4626 49.3471 33.9081 49.3733C33.3831 49.3979 32.8588 49.3126 32.3686 49.1229C31.8785 48.9332 31.4334 48.6433 31.0617 48.2717C30.6901 47.9 30.4002 47.4549 30.2105 46.9648C30.0208 46.4746 29.9355 45.9503 29.9601 45.4253C29.986 44.8706 29.8893 44.317 29.6767 43.804C29.4642 43.291 29.1411 42.8311 28.7304 42.4573C28.3421 42.1035 28.0319 41.6725 27.8197 41.192C27.6074 40.7115 27.4978 40.192 27.4978 39.6666C27.4978 39.1413 27.6074 38.6218 27.8197 38.1412C28.0319 37.6607 28.3421 37.2298 28.7304 36.876C29.5634 36.1176 30.0138 35.0326 29.9601 33.908C29.9355 33.383 30.0208 32.8586 30.2105 32.3685C30.4002 31.8784 30.6901 31.4332 31.0617 31.0616C31.4334 30.69 31.8785 30.4 32.3686 30.2103C32.8588 30.0206 33.3831 29.9354 33.9081 29.96C35.0304 30.0136 36.1178 29.5633 36.8761 28.7303V28.7326Z" stroke="#176729" stroke-width="1.5"/>
<path d="M35.8494 39.6666L38.3928 42.21L43.4841 37.1233M21.0001 28C23.4754 28 25.8494 27.0166 27.5997 25.2663C29.3501 23.516 30.3334 21.142 30.3334 18.6666C30.3334 16.1913 29.3501 13.8173 27.5997 12.067C25.8494 10.3166 23.4754 9.33331 21.0001 9.33331C18.5247 9.33331 16.1508 10.3166 14.4004 12.067C12.6501 13.8173 11.6667 16.1913 11.6667 18.6666C11.6667 21.142 12.6501 23.516 14.4004 25.2663C16.1508 27.0166 18.5247 28 21.0001 28Z" stroke="#176729" stroke-width="1.5" stroke-linecap="round" stroke-linejoin="round"/>
</svg>
