<svg width="56" height="56" viewBox="0 0 56 56" fill="none" xmlns="http://www.w3.org/2000/svg">
<path d="M6.41675 28C6.41675 33.7243 8.6907 39.2141 12.7384 43.2617C16.786 47.3094 22.2758 49.5834 28.0001 49.5834C33.7243 49.5834 39.2141 47.3094 43.2618 43.2617C47.3095 39.2141 49.5834 33.7243 49.5834 28H35.0188C35.0188 29.8615 34.2793 31.6467 32.963 32.963C31.6468 34.2792 29.8615 35.0187 28.0001 35.0187C26.1386 35.0187 24.3534 34.2792 23.0371 32.963C21.7209 31.6467 20.9814 29.8615 20.9814 28H6.41675ZM28.0001 6.41669H49.2929V20.9814H28.0001V6.41669Z" stroke="#176729" stroke-linecap="round" stroke-linejoin="round"/>
</svg>
