<svg width="91" height="66" viewBox="0 0 91 66" fill="none" xmlns="http://www.w3.org/2000/svg">
<path d="M51.1875 4.84415C51.1875 6.25175 50.4557 7.5167 49.2917 8.38852V14.355H68.25C71.2668 14.355 74.1601 15.357 76.2933 17.1406C78.4266 18.9243 79.625 21.3434 79.625 23.8658V55.5686C79.625 58.091 78.4266 60.5102 76.2933 62.2938C74.1601 64.0774 71.2668 65.0794 68.25 65.0794H22.75C19.7332 65.0794 16.8399 64.0774 14.7067 62.2938C12.5734 60.5102 11.375 58.091 11.375 55.5686V23.8658C11.375 21.3434 12.5734 18.9243 14.7067 17.1406C16.8399 15.357 19.7332 14.355 22.75 14.355H41.7083V8.38852C41.0012 7.8597 40.4635 7.19137 40.1442 6.4444C39.825 5.69743 39.7342 4.89555 39.8803 4.11177C40.0264 3.32799 40.4047 2.58722 40.9807 1.95691C41.5567 1.3266 42.3121 0.826767 43.1781 0.502937C44.0442 0.179107 44.9934 0.041563 45.9393 0.102829C46.8852 0.164095 47.7977 0.422226 48.5938 0.853715C49.3898 1.2852 50.0442 1.87634 50.4972 2.57331C50.9502 3.27027 51.1875 4.05091 51.1875 4.84415ZM0 30.2064H7.58333V49.2281H0V30.2064ZM91 30.2064H83.4167V49.2281H91V30.2064ZM34.125 44.4726C35.6334 44.4726 37.0801 43.9716 38.1467 43.0798C39.2133 42.188 39.8125 40.9784 39.8125 39.7172C39.8125 38.456 39.2133 37.2464 38.1467 36.3546C37.0801 35.4628 35.6334 34.9618 34.125 34.9618C32.6166 34.9618 31.1699 35.4628 30.1033 36.3546C29.0367 37.2464 28.4375 38.456 28.4375 39.7172C28.4375 40.9784 29.0367 42.188 30.1033 43.0798C31.1699 43.9716 32.6166 44.4726 34.125 44.4726ZM62.5625 39.7172C62.5625 38.456 61.9633 37.2464 60.8967 36.3546C59.8301 35.4628 58.3834 34.9618 56.875 34.9618C55.3666 34.9618 53.9199 35.4628 52.8533 36.3546C51.7867 37.2464 51.1875 38.456 51.1875 39.7172C51.1875 40.9784 51.7867 42.188 52.8533 43.0798C53.9199 43.9716 55.3666 44.4726 56.875 44.4726C58.3834 44.4726 59.8301 43.9716 60.8967 43.0798C61.9633 42.188 62.5625 40.9784 62.5625 39.7172Z" fill="white"/>
</svg>
