<svg width="37" height="42" viewBox="0 0 37 42" fill="none" xmlns="http://www.w3.org/2000/svg">
<path d="M20.8125 3.73134C20.8125 4.60497 20.515 5.39007 20.0417 5.93117V9.6343H27.75C28.9766 9.6343 30.153 10.2562 31.0204 11.3632C31.8877 12.4703 32.375 13.9717 32.375 15.5373V35.2138C32.375 36.7794 31.8877 38.2808 31.0204 39.3878C30.153 40.4949 28.9766 41.1168 27.75 41.1168H9.25C8.02337 41.1168 6.84699 40.4949 5.97963 39.3878C5.11228 38.2808 4.625 36.7794 4.625 35.2138V15.5373C4.625 13.9717 5.11228 12.4703 5.97963 11.3632C6.84699 10.2562 8.02337 9.6343 9.25 9.6343H16.9583V5.93117C16.6708 5.60295 16.4522 5.18815 16.3224 4.72454C16.1926 4.26093 16.1557 3.76324 16.2151 3.27678C16.2745 2.79032 16.4283 2.33056 16.6625 1.93935C16.8967 1.54814 17.2038 1.23792 17.556 1.03693C17.9081 0.835945 18.294 0.750577 18.6786 0.788602C19.0632 0.826628 19.4342 0.986838 19.7579 1.25464C20.0816 1.52245 20.3476 1.88935 20.5318 2.32192C20.716 2.7545 20.8125 3.23901 20.8125 3.73134ZM0 19.4726H3.08333V31.2785H0V19.4726ZM37 19.4726H33.9167V31.2785H37V19.4726ZM13.875 28.327C14.4883 28.327 15.0765 28.0161 15.5102 27.4626C15.9439 26.909 16.1875 26.1583 16.1875 25.3755C16.1875 24.5928 15.9439 23.842 15.5102 23.2885C15.0765 22.735 14.4883 22.4241 13.875 22.4241C13.2617 22.4241 12.6735 22.735 12.2398 23.2885C11.8061 23.842 11.5625 24.5928 11.5625 25.3755C11.5625 26.1583 11.8061 26.909 12.2398 27.4626C12.6735 28.0161 13.2617 28.327 13.875 28.327ZM25.4375 25.3755C25.4375 24.5928 25.1939 23.842 24.7602 23.2885C24.3265 22.735 23.7383 22.4241 23.125 22.4241C22.5117 22.4241 21.9235 22.735 21.4898 23.2885C21.0561 23.842 20.8125 24.5928 20.8125 25.3755C20.8125 26.1583 21.0561 26.909 21.4898 27.4626C21.9235 28.0161 22.5117 28.327 23.125 28.327C23.7383 28.327 24.3265 28.0161 24.7602 27.4626C25.1939 26.909 25.4375 26.1583 25.4375 25.3755Z" fill="#176729"/>
</svg>
