<svg width="70" height="61" viewBox="0 0 70 61" fill="none" xmlns="http://www.w3.org/2000/svg">
<path d="M39.375 4.46351C39.375 5.78468 38.8121 6.97194 37.9167 7.79024V13.3903H52.5C54.8206 13.3903 57.0462 14.3308 58.6872 16.0049C60.3281 17.679 61.25 19.9496 61.25 22.3171V52.0732C61.25 54.4407 60.3281 56.7113 58.6872 58.3854C57.0462 60.0595 54.8206 61 52.5 61H17.5C15.1794 61 12.9538 60.0595 11.3128 58.3854C9.67187 56.7113 8.75 54.4407 8.75 52.0732V22.3171C8.75 19.9496 9.67187 17.679 11.3128 16.0049C12.9538 14.3308 15.1794 13.3903 17.5 13.3903H32.0833V7.79024C31.5394 7.29388 31.1258 6.6666 30.8802 5.96549C30.6346 5.26439 30.5648 4.51175 30.6772 3.7761C30.7896 3.04045 31.0805 2.34517 31.5236 1.75356C31.9667 1.16195 32.5478 0.692818 33.214 0.388873C33.8802 0.084928 34.6103 -0.0441702 35.3379 0.0133338C36.0655 0.0708379 36.7674 0.313117 37.3798 0.718111C37.9922 1.1231 38.4955 1.67794 38.844 2.33211C39.1925 2.98627 39.375 3.71898 39.375 4.46351ZM0 28.2683H5.83333V46.122H0V28.2683ZM70 28.2683H64.1667V46.122H70V28.2683ZM26.25 41.6586C27.4103 41.6586 28.5231 41.1883 29.3436 40.3513C30.1641 39.5142 30.625 38.3789 30.625 37.1952C30.625 36.0114 30.1641 34.8761 29.3436 34.0391C28.5231 33.202 27.4103 32.7318 26.25 32.7318C25.0897 32.7318 23.9769 33.202 23.1564 34.0391C22.3359 34.8761 21.875 36.0114 21.875 37.1952C21.875 38.3789 22.3359 39.5142 23.1564 40.3513C23.9769 41.1883 25.0897 41.6586 26.25 41.6586ZM48.125 37.1952C48.125 36.0114 47.6641 34.8761 46.8436 34.0391C46.0231 33.202 44.9103 32.7318 43.75 32.7318C42.5897 32.7318 41.4769 33.202 40.6564 34.0391C39.8359 34.8761 39.375 36.0114 39.375 37.1952C39.375 38.3789 39.8359 39.5142 40.6564 40.3513C41.4769 41.1883 42.5897 41.6586 43.75 41.6586C44.9103 41.6586 46.0231 41.1883 46.8436 40.3513C47.6641 39.5142 48.125 38.3789 48.125 37.1952Z" fill="#176729"/>
</svg>
