<svg width="24" height="26" viewBox="0 0 24 26" fill="none" xmlns="http://www.w3.org/2000/svg">
<path d="M18.4266 24.6907L1.00396 2.29067C0.912127 2.17241 0.855326 2.03076 0.840012 1.88183C0.824698 1.73289 0.851486 1.58265 0.91733 1.44818C0.983174 1.31371 1.08543 1.20042 1.21247 1.12119C1.33951 1.04196 1.48624 0.999974 1.63596 1H4.94262C5.06435 1.00018 5.18443 1.02814 5.29372 1.08174C5.40301 1.13535 5.49863 1.21319 5.57329 1.30933L22.996 23.7093C23.0878 23.8276 23.1446 23.9692 23.1599 24.1182C23.1752 24.2671 23.1484 24.4174 23.0826 24.5518C23.0167 24.6863 22.9145 24.7996 22.7874 24.8788C22.6604 24.958 22.5137 25 22.364 25H19.0573C18.9356 24.9998 18.8155 24.9719 18.7062 24.9183C18.5969 24.8647 18.5013 24.7868 18.4266 24.6907Z" stroke="white" stroke-width="1.5"/>
<path d="M22.6666 1L1.33325 25" stroke="white" stroke-width="1.5" stroke-linecap="round"/>
</svg>
